<?xml version="1.0" encoding="utf-8"?>
<!-- Generator: Adobe Illustrator 24.1.2, SVG Export Plug-In . SVG Version: 6.00 Build 0)  -->
<svg version="1.1" id="Layer_1" xmlns="http://www.w3.org/2000/svg" xmlns:xlink="http://www.w3.org/1999/xlink" x="0px" y="0px"
	 viewBox="0 0 168.79 58.87" style="enable-background:new 0 0 168.79 58.87;" xml:space="preserve">
<style type="text/css">
	.st0{fill:#781E19;}
	.st1{fill:#955855;}
	.st2{fill:#A26C6A;}
	.st3{fill:#AA7775;}
	.st4{fill:#D6BDBB;}
	.st5{fill:#FFFFFF;}
	.st6{fill:#FCFCFE;}
	.st7{fill:#C29D9B;}
	.st8{fill:#D6A64F;}
	.st9{fill:#641514;}
	.st10{fill:#181412;}
	.st11{fill:#F2E1C5;}
	.st12{fill:#CC111B;}
	.st13{fill:#C7121B;}
	.st14{fill:#C4111C;}
	.st15{enable-background:new    ;}
	.st16{fill:#363636;}
</style>
<g>
	<g id="Group_507" transform="translate(-26.148 -25.545)">
		<path id="Path_340" class="st0" d="M55.8,84.41c-6.39,0-12.62-2.06-17.75-5.88c-3.27-2.44-6.01-5.53-8.04-9.07
			c-1.95-3.32-3.18-7-3.61-10.82c-0.82-6.1,0.36-12.29,3.34-17.67c1.92-3.55,4.56-6.65,7.75-9.12c12.11-9.47,29.44-8.14,39.97,3.07
			c5.72,6.06,8.57,14.27,7.85,22.57c-0.5,6.39-3.12,12.44-7.45,17.17c-2.26,2.53-4.95,4.64-7.95,6.22
			c-2.53,1.35-5.24,2.34-8.06,2.92C59.87,84.21,57.83,84.41,55.8,84.41z"/>
		<path id="Path_341" class="st1" d="M55.29,84.32h0.84c0.02,0.01,0.02,0.02,0.01,0.03s-0.01,0.01-0.02,0.01h-0.83
			c-0.02-0.01-0.02-0.02-0.02-0.03S55.28,84.32,55.29,84.32z"/>
		<path id="Path_342" class="st2" d="M56.12,84.36v-0.04c0.16,0.01,0.33-0.07,0.49,0.04H56.12z"/>
		<path id="Path_343" class="st3" d="M55.29,84.32c0,0.01,0,0.03,0,0.04h-0.39C55.02,84.26,55.16,84.34,55.29,84.32z"/>
		<path id="Path_344" class="st4" d="M57.1,84.32c0,0.01,0,0.03,0,0.04h-0.34C56.86,84.27,56.99,84.33,57.1,84.32z"/>
		<path id="Path_345" class="st5" d="M55.8,77.95c-4.99,0-9.85-1.61-13.85-4.59c-2.56-1.9-4.69-4.31-6.27-7.08
			c-1.52-2.59-2.49-5.46-2.83-8.45c-0.64-4.76,0.28-9.59,2.61-13.79c1.5-2.77,3.56-5.19,6.05-7.12c9.46-7.39,22.99-6.35,31.2,2.4
			c4.46,4.73,6.69,11.14,6.13,17.61c-0.39,4.99-2.44,9.71-5.82,13.4c-1.76,1.98-3.86,3.62-6.2,4.86c-1.98,1.06-4.09,1.82-6.29,2.28
			C58.97,77.79,57.39,77.95,55.8,77.95z"/>
		<path id="Path_346" class="st5" d="M58.52,80.57c-0.03-0.43-0.02-0.43,0.38-0.51c-0.12-0.21-0.25-0.38-0.53-0.3
			c-0.18,0.05-0.36-0.04-0.44-0.21c-0.19-0.28-0.43-0.54-0.7-0.75c-0.24-0.21-0.54-0.35-0.85-0.39c-0.42-0.07-0.81,0.22-0.88,0.63
			c-0.02,0.1-0.01,0.21,0.01,0.31c0.04,0.17,0.1,0.34,0.17,0.51c-1.5,0-3-0.14-4.48-0.43c0.09,0.2,0.08,0.4,0.34,0.43
			c0.39,0.05,0.38,0.07,0.31,0.46c0,0.02-0.01,0.05-0.02,0.07c-0.05,0.21,0.01,0.52-0.16,0.61s-0.42-0.06-0.63-0.08
			c-0.15-0.01-0.18-0.08-0.15-0.21c0.04-0.22,0.08-0.43,0.12-0.65c0.08-0.37-0.06-0.75-0.35-0.99c-0.19-0.2-0.51-0.2-0.71-0.01
			c-0.05,0.06-0.14,0.09-0.21,0.06c-0.21-0.07-0.42-0.13-0.63-0.19c-0.06-0.02-0.1-0.05-0.12-0.14c-0.11-0.5-0.32-0.98-0.63-1.39
			c-0.2-0.27-0.51-0.44-0.84-0.48c-0.35-0.06-0.7,0.16-0.8,0.5c-0.06,0.22-0.08,0.46-0.06,0.69c-0.43-0.15-0.84-0.32-1.25-0.52
			c-0.09-0.05-0.1-0.1-0.11-0.19c-0.02-0.43-0.13-0.86-0.3-1.25c-0.09-0.24-0.24-0.45-0.44-0.61c-0.31-0.3-0.81-0.3-1.11,0.01
			c-0.1,0.1-0.16,0.22-0.2,0.35c-0.05,0.16-0.08,0.33-0.09,0.5l-0.7-0.4c-0.03,0.26,0,0.47,0.27,0.57c0.07,0.03,0.13,0.06,0.07,0.16
			c-0.37,0.58-0.65,1.21-1.08,1.76c-0.09,0.09-0.1,0.23-0.02,0.33c0.08,0.1,0.16,0.21,0.24,0.32l1.32-2.24
			c0.23,0.17,0.48,0.31,0.75,0.42c0.07,0.04,0.16,0.07,0.14,0.17c0,0.22-0.11,0.43-0.29,0.57c-0.13,0.09-0.28,0.17-0.32-0.1
			c-0.01-0.12-0.11-0.22-0.23-0.21c-0.13,0.01-0.23,0.11-0.24,0.24c-0.02,0.11-0.03,0.23-0.01,0.34c0.1,0.57,0.24,1.13,0.44,1.67
			c0.04,0.13,0.1,0.11,0.19,0.07c0.12-0.04,0.15-0.1,0.08-0.21c-0.15-0.25-0.26-0.52-0.34-0.81c-0.06-0.2-0.08-0.34,0.19-0.35
			c0.11-0.02,0.22-0.07,0.3-0.15c0.08-0.07,0.12-0.06,0.15,0.04c0.1,0.35,0.39,0.62,0.76,0.67c-0.11,0.24-0.21,0.47-0.33,0.69
			c-0.07,0.09-0.06,0.22,0.02,0.31c0.08,0.09,0.11,0.22,0.22,0.3l0.94-1.93c0.04-0.13,0.1-0.24,0.17-0.35
			c0.13-0.11,0.24,0.1,0.36,0.09c0.22-0.01,0.16,0.09,0.11,0.22c-0.21,0.54-0.4,1.09-0.64,1.61c-0.16,0.28-0.07,0.63,0.2,0.8
			c0.02-0.03,0.03-0.05,0.05-0.08c0.25-0.64,0.5-1.27,0.74-1.91c0.05-0.12,0.06-0.28,0.15-0.35c0.11-0.09,0.23,0.07,0.35,0.1
			c0.61,0.17,1.22,0.36,1.83,0.52c0.19,0.05,0.12,0.15,0.09,0.25s-0.05,0.22-0.22,0.15s-0.34-0.11-0.51-0.15
			c-0.26-0.11-0.55-0.05-0.75,0.14c-0.16,0.2-0.18,0.49-0.05,0.71c0.04,0.1,0.03,0.14-0.07,0.18c-0.12,0.07-0.27,0.03-0.34-0.08
			c-0.1-0.14-0.01-0.24,0.1-0.3s0.1-0.11,0.04-0.19s-0.11-0.16-0.16-0.25c-0.03-0.05-0.06-0.08-0.13-0.05
			c-0.24,0.1-0.36,0.38-0.26,0.62c0.01,0.03,0.02,0.05,0.04,0.08c0.07,0.13,0.18,0.23,0.32,0.3c0.11,0.05,0.12,0.1,0.06,0.2
			c-0.07,0.12-0.06,0.26,0.02,0.37c0.23,0.42,0.7,0.63,1.16,0.52c0.16-0.03,0.32-0.24,0.44-0.15s0.14,0.3,0.19,0.46
			c0.04,0.14,0.11,0.1,0.2,0.07s0.12-0.08,0.06-0.18c-0.09-0.16-0.17-0.33-0.26-0.5c-0.08-0.14-0.16-0.25,0.09-0.33
			c0.16-0.06,0.24-0.25,0.18-0.41c-0.03-0.18-0.18-0.31-0.36-0.31c-0.17-0.01-0.32,0.03-0.34,0.23c-0.01,0.09-0.06,0.09-0.12,0.07
			c-0.13-0.03-0.25-0.06-0.37-0.11c-0.19-0.06-0.3-0.27-0.24-0.46c0.06-0.19,0.27-0.3,0.46-0.24l0,0c0.17,0.04,0.33,0.1,0.49,0.14
			c0.19,0.06,0.43,0.2,0.57,0.14c0.17-0.07,0.14-0.37,0.22-0.56c0.03-0.07,0-0.18,0.12-0.18c0.09,0,0.17,0.06,0.2,0.15
			c0.05,0.18,0.18,0.34,0.34,0.43c0.25,0.12,0.24,0.29,0.2,0.51c-0.03,0.15-0.07,0.23-0.24,0.19c-0.15-0.04-0.3,0-0.27,0.2
			c0.04,0.32,0.22,0.61,0.49,0.78c0.15,0.1,0.31,0.03,0.31-0.13c0.01-0.36,0.21-0.33,0.45-0.26c0.05,0.02,0.11,0.03,0.17,0.04
			c0.31,0.05,0.31,0.05,0.25,0.35c-0.1,0.52-0.09,0.54,0.34,0.82c0.13-0.71,0.25-1.42,0.38-2.12c0-0.14,0.04-0.27,0.1-0.39
			c0.08-0.09,0.23,0.02,0.35,0.02c0.02,0,0.05-0.01,0.07,0l1.49,0.1c0.08,0,0.14,0.01,0.13,0.12c-0.03,0.28-0.05,0.57-0.08,0.88
			c-0.12-0.1-0.21-0.18-0.3-0.27c-0.19-0.18-0.44-0.3-0.7-0.32c-0.36-0.06-0.71,0.18-0.77,0.54c-0.01,0.07-0.01,0.13,0,0.2
			c0.14,0.57,0.72,0.92,1.29,0.78c0.03-0.01,0.06-0.02,0.1-0.03c0.1-0.07,0.22-0.11,0.34-0.11c-0.1,0.39-0.05,0.72,0.41,0.84
			c0.05-0.71,0.11-1.4,0.16-2.1c-0.01-0.14,0-0.28,0.04-0.41c0.08-0.16,0.27-0.01,0.4-0.06c0.18-0.06,0.2,0.02,0.2,0.18
			c-0.02,0.58-0.03,1.16-0.04,1.74c-0.01,0.46,0,0.47,0.51,0.69c0-0.79,0.01-1.55-0.01-2.32c0-0.22,0.03-0.3,0.28-0.3
			c0.46,0,0.91-0.06,1.37-0.08s0.35-0.07,0.39,0.35c0.01,0.12-0.01,0.18-0.15,0.18c-0.25,0-0.51,0.05-0.76,0.04
			c-0.36-0.04-0.69,0.22-0.73,0.58c-0.02,0.16,0.03,0.33,0.12,0.46c0.19,0.32,0.42,0.6,0.7,0.85c0.07,0.06,0.13,0.2,0.25,0.06
			s-0.05-0.16-0.1-0.21c-0.27-0.21-0.44-0.51-0.49-0.85c-0.04-0.18,0.07-0.36,0.26-0.41c0.03-0.01,0.07-0.01,0.1-0.01
			c0.23-0.02,0.46-0.03,0.68-0.05c0.12-0.01,0.16,0.03,0.16,0.14c0.01,0.25,0.06,0.51,0.04,0.76c-0.02,0.38,0.17,0.56,0.53,0.64
			c-0.01-0.11-0.01-0.21-0.02-0.31C58.61,81.79,58.56,81.18,58.52,80.57z M43.42,76.59c-0.06-0.03-0.08-0.09-0.05-0.15
			c0,0,0-0.01,0.01-0.01c0.19-0.43,0.68-0.84,1.21-0.3c0.35,0.37,0.55,0.86,0.56,1.37C44.55,77.23,43.98,76.93,43.42,76.59
			L43.42,76.59z M45.4,78.18c-0.08,0.15-0.16,0.3-0.22,0.46c-0.05,0.15-0.21,0.24-0.36,0.22c-0.3,0.01-0.56-0.23-0.57-0.53
			c0-0.07,0.01-0.13,0.03-0.19c0.07-0.15,0.1-0.31,0.11-0.47c-0.01-0.14,0.05-0.12,0.14-0.08c0.27,0.13,0.54,0.27,0.81,0.39
			C45.45,78.03,45.45,78.08,45.4,78.18z M47,78.28c-0.11-0.06-0.14-0.11-0.1-0.22c0.17-0.5,0.53-0.86,1.2-0.41
			c0.4,0.3,0.68,0.75,0.77,1.24C48.23,78.73,47.61,78.52,47,78.28L47,78.28z M47.92,80.99c0.17,0.07,0.33,0.15,0.51,0.23
			c-0.15,0.2-0.39,0.31-0.64,0.31c-0.14,0.03-0.28-0.04-0.35-0.17c-0.04-0.09-0.01-0.2,0.07-0.26
			C47.62,80.98,47.78,80.94,47.92,80.99L47.92,80.99z M50.46,79.99c-0.11,0.05-0.32-0.23-0.3-0.39c0-0.17,0.14-0.31,0.32-0.31
			c0.13-0.01,0.15,0.1,0.16,0.21C50.56,79.66,50.65,79.9,50.46,79.99L50.46,79.99z M54.26,81.51c-0.23,0.12-0.47,0.22-0.72,0.28
			c-0.31,0.04-0.55-0.07-0.58-0.3s0.19-0.42,0.47-0.47c0.05-0.01,0.1-0.01,0.15-0.02c0.31-0.01,0.5,0.2,0.72,0.36
			C54.37,81.43,54.33,81.49,54.26,81.51L54.26,81.51z M57.19,79.83c-0.39,0.04-0.78,0.05-1.17,0.04c-0.11-0.01-0.16-0.04-0.17-0.15
			c-0.1-0.37,0.12-0.74,0.49-0.84c0.14-0.04,0.28-0.03,0.41,0.02c0.48,0.15,0.9,0.46,1.18,0.88C57.65,79.81,57.42,79.83,57.19,79.83
			L57.19,79.83z"/>
		<path id="Path_347" class="st5" d="M68.84,77.13c-0.19-0.33-0.19-0.33,0.13-0.54c0.01-0.01,0.01-0.02,0.01-0.03
			c-0.2-0.18-0.51-0.18-0.7,0.01c-0.31,0.22-0.65,0.41-0.99,0.57c-0.96,0.42-1.88,0.91-2.88,1.24c-1.17,0.43-2.37,0.77-3.59,1
			c-0.48,0.07-0.96,0.19-1.45,0.28c0.12,0.24,0.41,0.35,0.66,0.24c0.34-0.09,0.69-0.13,1.03-0.21c0.1-0.02,0.14-0.02,0.16,0.1
			c0.04,0.23,0.09,0.46,0.14,0.7c-0.55-0.27-0.66-0.29-0.95-0.2c-0.26,0.08-0.42,0.35-0.36,0.61c0.14,0.48,0.64,0.76,1.12,0.63
			c0.12-0.03,0.23-0.09,0.32-0.16c0.01-0.01,0.03,0,0.05-0.01c0.05,0.34,0.07,0.71,0.54,0.75c0.12-0.01,0.07-0.09,0.06-0.16
			c-0.05-0.27-0.1-0.54-0.16-0.81c-0.07-0.26,0.05-0.53,0.29-0.65c0.15-0.11,0.37-0.08,0.48,0.07c0.04,0.06,0.07,0.13,0.07,0.2
			c0.02,0.2-0.03,0.39-0.14,0.56c-0.07,0.11-0.04,0.17,0.07,0.22c0.07,0.04,0.14,0.08,0.21,0.13c0.09,0.07,0.13,0.02,0.15-0.06
			c0.09-0.23,0.11-0.48,0.06-0.72c-0.2-0.71-0.82-0.99-1.34-0.59c-0.02-0.07-0.03-0.14-0.04-0.21c-0.12-0.53-0.11-0.52,0.42-0.64
			c0.32-0.02,0.64-0.11,0.92-0.26c0.09-0.07,0.12,0.02,0.15,0.1c0.08,0.24,0.15,0.48,0.25,0.71c0.07,0.17,0.06,0.25-0.14,0.31
			c-0.22,0.07-0.24,0.21-0.1,0.39c0.15,0.17,0.35,0.3,0.57,0.37c0.14,0.05,0.29,0.11,0.41-0.02c0.11-0.11,0.04-0.25-0.01-0.37
			s-0.03-0.17,0.1-0.21c0.2-0.05,0.39-0.12,0.58-0.2c0.1-0.04,0.15-0.02,0.17,0.08c0.02,0.07,0.04,0.14,0.07,0.21
			c0.13,0.38,0.23,0.45,0.65,0.43c-0.03-0.08-0.05-0.16-0.07-0.23c-0.24-0.68-0.47-1.37-0.7-2.06c-0.01-0.04-0.12-0.11,0.03-0.18
			c0.69-0.3,1.38-0.61,2.06-0.94c0.16-0.08,0.23-0.05,0.28,0.11c0.02,0.05,0.04,0.11,0.07,0.15c0.12,0.16,0.05,0.23-0.11,0.29
			c-0.4,0.17-0.8,0.36-1.23,0.56c0.19,0.06,0.35,0.11,0.5,0.15c0.18,0.05,0.35,0.15,0.47,0.3c0.14,0.12,0.15,0.34,0.03,0.48
			c-0.07,0.08-0.17,0.12-0.27,0.11c-0.19,0.01-0.37-0.04-0.54-0.13c-0.22-0.12-0.43-0.27-0.59-0.46c-0.04-0.04-0.07-0.09-0.14-0.03
			c-0.05,0.04-0.07,0.08-0.02,0.14c0.38,0.5,0.94,0.82,1.56,0.9c0.32,0.04,0.61-0.2,0.64-0.52c0.02-0.21-0.07-0.41-0.24-0.53
			c-0.15-0.12-0.32-0.22-0.5-0.28c0.22-0.1,0.41-0.19,0.6-0.29c0.11-0.06,0.17-0.04,0.22,0.08c0.13,0.29,0.27,0.57,0.4,0.86
			c0.03,0.1,0.12,0.16,0.22,0.16c0.12,0,0.24,0.02,0.37,0.03c0-0.09-0.03-0.17-0.08-0.24c-0.27-0.57-0.54-1.15-0.81-1.72
			c-0.07-0.11-0.13-0.23-0.16-0.35c-0.01-0.17,0.23-0.12,0.29-0.22c0.12-0.18,0.16-0.07,0.22,0.04c0.3,0.51,0.59,1.03,0.89,1.54
			c0.21,0.36,0.29,0.4,0.73,0.3L68.84,77.13z M61.36,80.9c-0.11,0.17-0.27,0.3-0.46,0.38c-0.14,0.08-0.33,0.04-0.41-0.1
			c-0.01-0.01-0.01-0.02-0.02-0.04c0-0.08,0-0.17,0-0.25c0.16-0.28,0.52-0.39,0.8-0.23c0.01,0.01,0.02,0.01,0.04,0.02
			C61.4,80.74,61.43,80.8,61.36,80.9z M64.82,79.81c-0.02,0.01-0.05,0.02-0.07,0.03c-0.23,0.07-0.49,0.25-0.68,0.19
			s-0.18-0.4-0.26-0.62c-0.15-0.4-0.14-0.4,0.27-0.54c0.45-0.15,0.45-0.15,0.6,0.3l0.19,0.57C64.88,79.77,64.86,79.8,64.82,79.81
			C64.83,79.81,64.83,79.81,64.82,79.81z"/>
		<path id="Path_348" class="st5" d="M81.25,54.88c0.61,0.15,1.17,0.28,1.72,0.46c0.23,0.07,0.55,0.08,0.67,0.24
			s0.03,0.47,0.06,0.71s-0.06,0.31-0.3,0.33c-0.98,0.05-1.95,0.12-2.93,0.2c-0.19,0.01-0.27-0.02-0.27-0.24
			c0-0.53-0.01-0.52,0.52-0.55c0.71-0.03,1.43-0.07,2.18-0.11c-0.79-0.23-1.55-0.45-2.31-0.67c-0.11-0.03-0.29-0.02-0.32-0.13
			c-0.03-0.18-0.04-0.36-0.02-0.53c0.01-0.11,0.13-0.09,0.2-0.11c0.74-0.22,1.48-0.46,2.23-0.61c0.06-0.02,0.12-0.04,0.18-0.07
			l-1.94-0.06c-0.2-0.01-0.39-0.01-0.59-0.01c-0.11,0-0.15-0.04-0.16-0.15c-0.05-0.59-0.06-0.59,0.52-0.56
			c0.93,0.04,1.86,0.09,2.78,0.13c0.14,0.01,0.18,0.05,0.18,0.18c-0.01,0.28,0.1,0.62-0.03,0.84s-0.49,0.2-0.75,0.28
			C82.36,54.61,81.83,54.74,81.25,54.88z"/>
		<path id="Path_349" class="st5" d="M35.41,70.37l-1.27,1.06c-0.02,0.02-0.05,0.04-0.08,0.06c-0.14,0.09-0.28,0.33-0.4,0.27
			c-0.17-0.07-0.27-0.29-0.4-0.44c-0.07-0.08,0-0.11,0.05-0.15c0.85-0.68,1.68-1.39,2.56-2.04c0.08-0.06,0.12-0.04,0.18,0.03
			c0.12,0.15,0.23,0.3,0.35,0.44c0.06,0.07,0.08,0.17,0.03,0.24c-0.26,0.62-0.5,1.25-0.78,1.87c-0.09,0.2-0.23,0.38-0.35,0.64
			c0.18-0.13,0.31-0.21,0.43-0.31c0.49-0.4,0.97-0.79,1.45-1.2c0.1-0.09,0.15-0.09,0.25,0.02c0.36,0.43,0.36,0.42-0.08,0.78
			c-0.54,0.44-1.08,0.87-1.62,1.31c-0.08,0.07-0.17,0.11-0.26,0.17c-0.16,0.11-0.36,0.39-0.45,0.32c-0.22-0.18-0.4-0.4-0.56-0.64
			c-0.05-0.07,0.02-0.14,0.04-0.2c0.26-0.71,0.55-1.41,0.88-2.09C35.42,70.48,35.45,70.44,35.41,70.37z"/>
		<path id="Path_350" class="st5" d="M30.72,50.21c-0.73-0.08-1.45-0.18-2.16-0.3c-0.13-0.02-0.18-0.04-0.15-0.19
			c0.09-0.54,0.08-0.55,0.63-0.46c0.92,0.14,1.83,0.29,2.75,0.43c0.15,0.02,0.2,0.05,0.18,0.22c-0.09,0.62-0.08,0.62-0.67,0.83
			c-0.36,0.13-0.72,0.26-1.08,0.39s-0.71,0.24-1.08,0.36c0.32,0.04,0.63,0.08,0.94,0.13c0.46,0.07,0.92,0.14,1.38,0.21
			c0.14,0.02,0.18,0.06,0.16,0.22c-0.08,0.53-0.07,0.53-0.61,0.45c-0.92-0.15-1.85-0.29-2.77-0.43c-0.16-0.02-0.17-0.07-0.17-0.23
			c-0.05-0.48,0.3-0.91,0.78-0.97c0.59-0.16,1.16-0.41,1.76-0.56C30.65,50.29,30.69,50.29,30.72,50.21z"/>
		<path id="Path_351" class="st5" d="M29.19,59.21c0.52-0.08,1.05-0.15,1.57-0.23c0.28-0.04,0.57-0.07,0.85-0.11
			c0.1-0.01,0.14,0,0.16,0.11c0.12,0.58,0.12,0.6-0.47,0.67c-0.92,0.11-1.84,0.22-2.76,0.35c-0.17,0.02-0.18-0.04-0.22-0.18
			c-0.18-0.44,0.02-0.94,0.45-1.14c0.56-0.35,1.1-0.75,1.65-1.14c-0.17,0.03-0.33,0.07-0.5,0.09c-0.56,0.08-1.13,0.15-1.69,0.23
			c-0.11,0.02-0.17,0-0.17-0.12c0-0.01,0-0.02,0-0.02c-0.08-0.56-0.08-0.55,0.48-0.62c0.92-0.11,1.84-0.23,2.76-0.36
			c0.18-0.03,0.19,0.04,0.23,0.18c0.16,0.39-0.03,0.83-0.41,0.99c-0.38,0.24-0.74,0.5-1.09,0.78
			C29.75,58.88,29.48,59.06,29.19,59.21z"/>
		<path id="Path_352" class="st5" d="M70.54,34.35c0.12-0.07,0.15-0.17,0.19-0.25c0.32-0.55,0.68-1.07,1.03-1.6
			c0.06-0.09,0.1-0.12,0.21-0.05c0.5,0.3,0.5,0.3,0.18,0.78c-0.51,0.76-1.01,1.52-1.52,2.28c-0.08,0.13-0.14,0.15-0.28,0.06
			c-0.54-0.36-0.54-0.36-0.47-1.05s0.1-1.41,0.24-2.12c-0.11,0.02-0.12,0.1-0.15,0.16c-0.38,0.58-0.76,1.16-1.13,1.74
			c-0.08,0.12-0.13,0.17-0.28,0.07c-0.44-0.3-0.45-0.29-0.15-0.74c0.51-0.76,1.03-1.53,1.53-2.3c0.09-0.13,0.16-0.16,0.28-0.06
			c0.05,0.05,0.11,0.09,0.18,0.12c0.39,0.15,0.43,0.44,0.39,0.82C70.71,32.92,70.7,33.63,70.54,34.35z"/>
		<path id="Path_353" class="st5" d="M82.5,62.44c-0.99-0.33-1.98-0.67-2.98-1.01c-0.07-0.03-0.13-0.05-0.18,0.05
			c-0.32,0.56-0.5,1.18-0.52,1.82c0,0.03,0,0.12,0,0.21c0,0.04,0.01,0.08,0.02,0.12c0.21,0.67,0.78,1.17,1.47,1.3
			c0.66,0.2,1.36-0.08,1.7-0.68c0.29-0.51,0.49-1.07,0.58-1.64C82.63,62.51,82.6,62.47,82.5,62.44z M81.82,63.18
			c-0.05,0.48-0.39,0.87-0.86,0.98c-0.55,0.06-1.09-0.21-1.38-0.68c-0.06-0.14-0.09-0.28-0.08-0.43c0-0.05,0-0.1,0.01-0.15
			c0.05-0.56,0.12-0.6,0.64-0.42s1.02,0.34,1.52,0.51C81.76,63.02,81.85,63.02,81.82,63.18L81.82,63.18z"/>
		<path id="Path_354" class="st5" d="M35.29,68.14c-0.23-0.57-0.57-1.09-1-1.52c-0.28-0.28-0.66-0.43-1.06-0.43
			c-0.58,0.01-1.12,0.27-1.5,0.7c-0.3,0.32-0.42,0.77-0.33,1.2c0.17,0.65,0.48,1.25,0.9,1.77c0.07,0.1,0.13,0.06,0.2,0.01
			c0.9-0.52,1.81-1.04,2.71-1.55C35.3,68.28,35.34,68.24,35.29,68.14z M34.34,67.92c-0.58,0.33-1.17,0.66-1.75,1.01
			c-0.13,0.07-0.17,0.01-0.23-0.07c-0.29-0.32-0.36-0.77-0.19-1.16c0.23-0.41,0.65-0.68,1.12-0.71c0.51,0,0.96,0.32,1.13,0.8
			C34.45,67.87,34.39,67.89,34.34,67.92z"/>
		<path id="Path_355" class="st5" d="M79.11,40.11c-0.75-0.33-1.62-0.16-2.18,0.44c-0.5,0.43-0.67,1.13-0.42,1.74
			c0.22,0.65,0.83,1.1,1.51,1.12c0.73-0.02,1.4-0.38,1.81-0.99c0.45-0.8,0.16-1.81-0.64-2.26C79.16,40.14,79.14,40.12,79.11,40.11z
			 M79.02,42.08c-0.29,0.3-0.68,0.49-1.09,0.55c-0.41,0.05-0.78-0.23-0.83-0.64c-0.02-0.16,0.01-0.33,0.09-0.47
			c0.27-0.51,0.81-0.82,1.38-0.81c0.33-0.01,0.64,0.2,0.75,0.51C79.41,41.54,79.29,41.88,79.02,42.08L79.02,42.08z"/>
		<path id="Path_356" class="st5" d="M73.65,34.28c-0.63,0.05-1.2,0.4-1.53,0.94c-0.36,0.47-0.41,1.11-0.13,1.64
			c0.28,0.58,0.87,0.95,1.51,0.95c0.75,0,1.42-0.44,1.73-1.12c0.42-0.82,0.09-1.81-0.72-2.23C74.24,34.32,73.95,34.26,73.65,34.28z
			 M73.48,37.08c-0.34,0.05-0.67-0.11-0.84-0.4c-0.13-0.35-0.06-0.74,0.19-1.02c0.17-0.19,0.37-0.36,0.58-0.51
			c0.21-0.14,0.46-0.19,0.7-0.15c0.34,0.07,0.58,0.38,0.57,0.73C74.59,36.38,74.12,36.92,73.48,37.08L73.48,37.08z"/>
		<path id="Path_357" class="st5" d="M47.74,28.52c-0.93-0.02-1.7,0.71-1.72,1.64c0,0.02,0,0.03,0,0.05
			c-0.07,0.99,0.67,1.85,1.66,1.94c0.92,0.06,1.72-0.63,1.78-1.55c0-0.03,0-0.06,0-0.09c0.08-1.01-0.68-1.9-1.69-1.98
			C47.76,28.52,47.75,28.52,47.74,28.52z M48.14,31.44c-0.36,0.13-0.76-0.01-0.97-0.33c-0.26-0.33-0.38-0.75-0.35-1.17
			c-0.01-0.32,0.19-0.61,0.49-0.72c0.31-0.11,0.65-0.03,0.87,0.22c0.28,0.29,0.44,0.68,0.46,1.08
			C48.64,31.03,48.46,31.33,48.14,31.44L48.14,31.44z"/>
		<path id="Path_358" class="st5" d="M68.67,30.46c-0.02,0.05-0.04,0.1-0.07,0.15c-0.42,0.92-0.85,1.85-1.26,2.77
			c-0.07,0.15-0.13,0.2-0.28,0.11c-0.11-0.07-0.23-0.13-0.35-0.16c-0.28-0.04-0.2-0.21-0.1-0.33c0.19-0.31,0.35-0.64,0.49-0.97
			c0.05-0.09,0.01-0.12-0.07-0.16c-0.34-0.14-0.67-0.28-1-0.44c-0.12-0.06-0.14,0.02-0.17,0.09c-0.16,0.34-0.32,0.68-0.46,1.02
			c-0.05,0.13-0.11,0.16-0.23,0.09c-0.17-0.1-0.43-0.13-0.5-0.26s0.11-0.35,0.19-0.52c0.37-0.81,0.75-1.62,1.11-2.44
			c0.08-0.17,0.15-0.2,0.3-0.11c0.11,0.07,0.23,0.13,0.35,0.16c0.25,0.04,0.18,0.18,0.09,0.3c-0.17,0.28-0.32,0.58-0.45,0.88
			c-0.05,0.1-0.02,0.14,0.07,0.18c0.33,0.14,0.66,0.28,0.98,0.43c0.12,0.06,0.15,0,0.19-0.09c0.14-0.31,0.29-0.62,0.42-0.93
			c0.05-0.11,0.09-0.15,0.21-0.09c0.14,0.08,0.3,0.13,0.44,0.21C68.61,30.37,68.68,30.37,68.67,30.46z"/>
		<path id="Path_359" class="st5" d="M80.14,43.83c0.49-0.02,0.96,0.19,1.29,0.55c0.38,0.43,0.62,0.97,0.67,1.54
			c0.02,0.14-0.01,0.22-0.17,0.22s-0.32,0.08-0.43,0.02c-0.07-0.04-0.05-0.25-0.08-0.38c-0.02-0.1-0.05-0.2-0.09-0.3
			c-0.11-0.48-0.52-0.82-1.01-0.85c-0.54,0.01-1.02,0.35-1.21,0.85c-0.17,0.39,0.09,0.65,0.2,0.96c0.01,0.04,0.06,0.06,0.09,0.05
			c0,0,0,0,0.01,0c0.19-0.07,0.38-0.14,0.57-0.22c0.06-0.03,0.04-0.08,0.02-0.12c-0.04-0.09-0.07-0.18-0.11-0.27
			s-0.03-0.13,0.07-0.18c0.44-0.2,0.44-0.21,0.62,0.24c0.09,0.22,0.17,0.44,0.26,0.66c0.04,0.1,0.03,0.14-0.07,0.18
			c-0.48,0.19-0.97,0.38-1.45,0.58c-0.1,0.04-0.21,0.01-0.27-0.08c-0.53-0.57-0.78-1.34-0.68-2.11c0.14-0.75,0.71-1.06,1.37-1.26
			C79.87,43.85,80.01,43.83,80.14,43.83z"/>
		<path id="Path_360" class="st5" d="M80.89,66.53c-0.8-0.39-1.6-0.8-2.39-1.21c-0.53-0.27-0.52-0.27-0.8,0.25
			c-0.08,0.16-0.03,0.2,0.1,0.27c0.29,0.14,0.57,0.3,0.87,0.44c0.12,0.06,0.17,0.11,0.09,0.25c-0.1,0.28-0.4,0.42-0.68,0.33
			c-0.01,0-0.02-0.01-0.02-0.01c-0.25-0.05-0.51-0.11-0.76-0.16c-0.08-0.01-0.16-0.03-0.21,0.07c-0.1,0.2-0.2,0.4-0.32,0.63
			c0.63,0.03,1.18,0.42,1.79,0.11c0.01,0.11,0.02,0.23,0.04,0.34c0.16,0.51,0.7,0.8,1.21,0.64c0.19-0.06,0.36-0.17,0.48-0.33
			c0.31-0.4,0.55-0.85,0.72-1.32C81.08,66.69,81.06,66.62,80.89,66.53z M80.19,67.22c-0.06,0.13-0.13,0.26-0.22,0.38
			c-0.12,0.15-0.32,0.21-0.5,0.13c-0.2-0.07-0.33-0.26-0.32-0.47c0.02-0.19,0.09-0.38,0.2-0.54c0.05-0.1,0.11-0.04,0.16-0.01
			c0.2,0.1,0.4,0.21,0.6,0.31C80.22,67.06,80.25,67.11,80.19,67.22L80.19,67.22z"/>
		<path id="Path_361" class="st5" d="M39,37.1c-0.07,0.54-0.41,1.01-0.9,1.25c-0.42,0.23-0.94,0.17-1.31-0.14
			c-0.19-0.14-0.37-0.3-0.53-0.47c-0.38-0.37-0.76-0.73-1.15-1.09c-0.11-0.1-0.12-0.15-0.01-0.26c0.45-0.45,0.45-0.46,0.9-0.01
			c0.33,0.33,0.66,0.65,0.99,0.98c0.13,0.14,0.3,0.26,0.48,0.33c0.22,0.09,0.47,0.04,0.63-0.14c0.18-0.17,0.22-0.43,0.12-0.65
			c-0.09-0.19-0.23-0.36-0.38-0.5c-0.4-0.4-0.81-0.81-1.22-1.2c-0.12-0.12-0.1-0.18,0-0.28c0.42-0.41,0.41-0.42,0.84,0
			c0.36,0.36,0.72,0.71,1.07,1.07C38.82,36.28,39,36.68,39,37.1z"/>
		<path id="Path_362" class="st5" d="M32.85,63.22c-0.02-0.06-0.04-0.12-0.06-0.19c-0.13-0.44-0.13-0.44-0.57-0.42
			c-0.1,0-0.2,0-0.29,0.01c-0.1,0.03-0.2-0.02-0.23-0.12c0-0.02-0.01-0.03-0.01-0.05c-0.05-0.21-0.11-0.43-0.19-0.63
			c-0.06-0.14-0.01-0.2,0.11-0.27c0.17-0.1,0.34-0.23,0.51-0.33c0.08-0.05,0.11-0.1,0.08-0.2c-0.07-0.22-0.13-0.45-0.21-0.69
			c-1.01,0.65-1.96,1.34-2.97,1.95c-0.1,0.06-0.1,0.12-0.07,0.22c0.07,0.22,0.15,0.45,0.2,0.68c0.03,0.15,0.11,0.17,0.24,0.17
			c0.31,0,0.62,0,0.93,0l2.37,0.02C32.8,63.38,32.93,63.41,32.85,63.22z M29.73,62.69l1.19-0.75c0.07,0.25,0.14,0.48,0.22,0.73
			C30.66,62.69,30.2,62.67,29.73,62.69L29.73,62.69z"/>
		<path id="Path_363" class="st5" d="M78.28,70.21c-0.59-0.78-1.18-1.56-1.78-2.35c-0.11,0.16-0.22,0.32-0.34,0.46
			c-0.13,0.15-0.11,0.25,0.01,0.39c0.15,0.16,0.36,0.33,0.38,0.52c0.02,0.2-0.24,0.36-0.35,0.56c-0.12,0.22-0.25,0.25-0.49,0.16
			c-0.58-0.23-0.58-0.21-0.95,0.29c-0.13,0.18-0.07,0.21,0.1,0.27c0.97,0.32,1.95,0.64,2.91,0.98c0.25,0.09,0.4,0.07,0.53-0.17
			c0.11-0.2,0.36-0.38,0.35-0.56S78.41,70.39,78.28,70.21z M77.82,70.76l-1.25-0.47c0.13-0.18,0.25-0.34,0.36-0.51
			c0.05-0.07,0.09-0.1,0.16-0.01c0.25,0.32,0.51,0.63,0.76,0.94L77.82,70.76z"/>
		<path id="Path_364" class="st5" d="M83.25,59.06c-0.22-0.11-0.44-0.22-0.65-0.33l-2.49-1.25c-0.02,0.16-0.05,0.33-0.08,0.49
			c-0.08,0.24-0.01,0.35,0.23,0.45c0.58,0.24,0.56,0.25,0.46,0.87c-0.04,0.27-0.11,0.4-0.42,0.42c-0.6,0.05-0.6,0.08-0.69,0.69
			c-0.02,0.14-0.03,0.22,0.17,0.19c1.04-0.15,2.08-0.29,3.12-0.42c0.21-0.03,0.34-0.08,0.34-0.33c0.01-0.2,0.05-0.4,0.1-0.6
			c0.03-0.07-0.01-0.16-0.08-0.18C83.26,59.07,83.26,59.07,83.25,59.06z M81.39,59.64c-0.12,0.01-0.14-0.04-0.12-0.14
			c0.04-0.19,0.07-0.38,0.11-0.6l1.31,0.59C82.22,59.55,81.81,59.59,81.39,59.64L81.39,59.64z"/>
		<path id="Path_365" class="st5" d="M60.65,28.38c-0.37-0.05-0.68-0.09-1-0.15c-0.18-0.03-0.22,0.02-0.25,0.19
			c-0.07,0.52-0.08,0.52,0.45,0.58c0.16,0.01,0.32,0.04,0.48,0.07c0.1,0.02,0.28-0.03,0.3,0.09c0.01,0.19-0.02,0.37-0.08,0.55
			c-0.02,0.06-0.13,0.02-0.2,0.01c-0.31-0.04-0.63-0.08-0.94-0.14c-0.13-0.02-0.17,0.02-0.19,0.14c-0.14,0.67-0.14,0.67,0.53,0.75
			c0.24,0.03,0.48,0.07,0.73,0.1c0.06,0.01,0.12,0.01,0.11,0.09c-0.02,0.16-0.03,0.33-0.07,0.48c-0.02,0.11-0.12,0.07-0.18,0.06
			c-0.64-0.09-1.29-0.19-1.93-0.28c-0.13-0.02-0.13-0.08-0.12-0.18c0.14-0.94,0.27-1.89,0.41-2.83c0.07-0.45,0.08-0.45,0.54-0.39
			c0.51,0.07,1.02,0.14,1.53,0.2c0.14,0.02,0.19,0.07,0.16,0.2c-0.02,0.07-0.03,0.14-0.04,0.22C60.88,28.36,60.8,28.44,60.65,28.38z
			"/>
		<path id="Path_366" class="st5" d="M42.98,30.41c0.1,0.02,0.11,0.11,0.15,0.18c0.21,0.36,0.21,0.36-0.14,0.56
			c-0.23,0.13-0.47,0.27-0.7,0.4c-0.1,0.05-0.12,0.1-0.06,0.21c0.26,0.52,0.26,0.52,0.77,0.23c0.08-0.04,0.15-0.09,0.23-0.13
			c0.41-0.23,0.4-0.23,0.64,0.17c0.07,0.12,0.06,0.17-0.06,0.24c-0.28,0.15-0.55,0.32-0.83,0.47c-0.11,0.06-0.13,0.12-0.06,0.22
			c0.12,0.18,0.18,0.45,0.33,0.52s0.36-0.16,0.54-0.26s0.38-0.21,0.57-0.33c0.08-0.05,0.13-0.05,0.19,0.04
			c0.28,0.43,0.29,0.43-0.15,0.68l-1.25,0.71c-0.27,0.15-0.27,0.15-0.43-0.13c-0.27-0.47-0.52-0.96-0.82-1.42
			c-0.25-0.39-0.48-0.79-0.71-1.18c-0.06-0.1-0.08-0.16,0.04-0.22c0.56-0.3,1.11-0.61,1.67-0.92L42.98,30.41z"/>
		<path id="Path_367" class="st5" d="M32.64,47.49c-0.04,0.44-0.21,0.86-0.48,1.22c-0.09,0.13-0.16,0.12-0.28,0.04
			c-0.11-0.08-0.31-0.13-0.35-0.24s0.14-0.23,0.21-0.35c0.12-0.19,0.21-0.41,0.24-0.63c0.04-0.17-0.04-0.34-0.19-0.41
			c-0.14-0.08-0.32-0.04-0.42,0.09c-0.15,0.16-0.28,0.33-0.43,0.5c-0.27,0.39-0.77,0.55-1.21,0.37c-0.52-0.22-0.78-0.8-0.61-1.33
			c0.08-0.33,0.24-0.63,0.45-0.9c0.06-0.09,0.12-0.08,0.2-0.03c0.12,0.09,0.31,0.15,0.37,0.26c0.07,0.14-0.14,0.24-0.2,0.38
			c-0.08,0.16-0.13,0.33-0.15,0.51c-0.02,0.13,0.04,0.27,0.16,0.33c0.13,0.07,0.29,0.04,0.38-0.07c0.16-0.17,0.31-0.36,0.47-0.53
			c0.21-0.3,0.57-0.46,0.94-0.42C32.33,46.35,32.66,46.76,32.64,47.49z"/>
		<path id="Path_368" class="st5" d="M74.66,71.57c-0.22,0.1-0.42,0.22-0.61,0.36c-0.11,0.09-0.21,0.2-0.29,0.33
			c-0.1,0.13-0.09,0.31,0.01,0.43c0.1,0.12,0.26,0.16,0.4,0.11c0.12-0.04,0.24-0.09,0.36-0.14c0.17-0.08,0.34-0.15,0.53-0.2
			c0.34-0.11,0.72-0.01,0.96,0.26c0.25,0.27,0.32,0.66,0.18,1c-0.19,0.47-0.55,0.86-1.01,1.08c-0.08,0.05-0.14,0.04-0.19-0.06
			c-0.07-0.14-0.21-0.27-0.22-0.4c0-0.16,0.23-0.16,0.34-0.26c0.15-0.11,0.28-0.25,0.38-0.41c0.07-0.11,0.07-0.26-0.02-0.37
			c-0.08-0.11-0.23-0.14-0.35-0.09c-0.25,0.1-0.49,0.21-0.75,0.3c-0.33,0.15-0.73,0.11-1.01-0.12c-0.36-0.26-0.49-0.73-0.33-1.14
			c0.21-0.54,0.63-0.97,1.15-1.2c0.05-0.04,0.13-0.04,0.18,0.02c0.01,0.01,0.02,0.03,0.02,0.04C74.47,71.28,74.57,71.42,74.66,71.57
			z"/>
		<path id="Path_369" class="st5" d="M64.44,29.4c-0.29-0.22-0.65-0.35-1.02-0.35c-0.15,0-0.29,0.04-0.42,0.11
			c-0.41,0.28-0.64,0.76-0.6,1.26c0.05,0.45,0.38,0.81,0.82,0.89c0.14,0.04,0.29,0.07,0.43,0.07c0.19,0,0.22,0.06,0.21,0.24
			c-0.04,0.42-0.03,0.42-0.46,0.38c-0.24-0.02-0.48-0.08-0.71-0.17c-0.67-0.21-1.12-0.83-1.13-1.53c-0.02-0.76,0.41-1.47,1.1-1.79
			c0.66-0.24,1.4-0.15,1.98,0.25c0.1,0.06,0.1,0.12,0.04,0.22C64.6,29.11,64.53,29.24,64.44,29.4z"/>
		<path id="Path_370" class="st5" d="M50.81,31.3c-0.11,0.02-0.11-0.06-0.12-0.14c-0.16-0.97-0.33-1.94-0.49-2.91
			c-0.06-0.37-0.06-0.37,0.32-0.43c0.51-0.09,1.03-0.17,1.54-0.27c0.13-0.02,0.18,0,0.2,0.15c0.07,0.46,0.08,0.46-0.38,0.54
			c-0.23,0.04-0.46,0.09-0.7,0.12c-0.15,0.02-0.17,0.08-0.14,0.21c0.04,0.13,0.06,0.27,0.07,0.41c0.01,0.2,0.11,0.2,0.26,0.17
			c0.29-0.06,0.58-0.09,0.87-0.15c0.12-0.02,0.15,0,0.17,0.12c0.09,0.49,0.1,0.48-0.38,0.57c-0.18,0.04-0.37,0.07-0.55,0.09
			c-0.19,0.01-0.23,0.09-0.19,0.26c0.07,0.32,0.11,0.64,0.17,0.96c0.03,0.15,0.01,0.22-0.17,0.23
			C51.13,31.24,50.97,31.27,50.81,31.3z"/>
		<path id="Path_371" class="st5" d="M81.52,49.11l1.45,0.25c0.06,0.01,0.14,0,0.16,0.08c0.06,0.25,0.11,0.5,0.18,0.79
			c-0.48-0.14-0.94-0.24-1.36-0.41c-0.57-0.23-1.2-0.24-1.77-0.05c-0.49,0.15-0.49,0.12-0.63-0.37c-0.07-0.24-0.01-0.33,0.22-0.34
			c0.02,0,0.05-0.01,0.07-0.01c0.72-0.08,1.39-0.42,1.88-0.97c0.27-0.28,0.59-0.53,0.91-0.8c0.06,0.24,0.1,0.46,0.16,0.66
			c0.06,0.13,0,0.28-0.13,0.34C82.28,48.55,81.92,48.82,81.52,49.11z"/>
		<path id="Path_372" class="st5" d="M36.45,40.34c-0.14,0.18-0.29,0.38-0.45,0.56c-0.04,0.04-0.1-0.04-0.14-0.07
			c-0.68-0.44-1.33-0.94-1.97-1.43c-0.16-0.12-0.26-0.13-0.35,0.06c-0.04,0.07-0.09,0.14-0.14,0.2c-0.09,0.11-0.16,0.33-0.27,0.31
			c-0.17-0.07-0.33-0.17-0.46-0.3c-0.07-0.05-0.03-0.09,0.01-0.14c0.49-0.66,0.97-1.31,1.45-1.97c0.06-0.08,0.11-0.07,0.17-0.02
			c0.1,0.08,0.21,0.16,0.31,0.23c0.11,0.07,0.09,0.13,0.02,0.21c-0.12,0.16-0.24,0.33-0.37,0.49c-0.09,0.11-0.09,0.17,0.04,0.26
			c0.68,0.48,1.35,0.97,2.02,1.46C36.37,40.22,36.44,40.24,36.45,40.34z"/>
		<path id="Path_373" class="st5" d="M55.83,29.4c0-0.41-0.01-0.82,0-1.22c0-0.14-0.03-0.21-0.18-0.2c-0.2,0.01-0.41,0-0.61,0
			c-0.1,0-0.16-0.03-0.14-0.14c0-0.01,0-0.02,0-0.02c-0.02-0.51-0.02-0.51,0.49-0.5c0.67,0.01,1.34,0.03,2,0.03
			c0.17,0,0.2,0.05,0.2,0.21c-0.01,0.47,0,0.47-0.46,0.46c-0.51-0.01-0.51-0.01-0.51,0.5c-0.01,0.71-0.03,1.42-0.03,2.13
			c0,0.15-0.04,0.19-0.19,0.19c-0.61,0-0.61,0-0.59-0.59c0.01-0.28,0-0.55,0-0.83L55.83,29.4z"/>
		<path id="Path_374" class="st5" d="M30.51,44.86c-0.17-0.08-0.34-0.15-0.5-0.24c-0.07-0.04-0.01-0.1,0.01-0.15
			c0.33-0.72,0.67-1.45,1-2.17c0.04-0.09,0.07-0.12,0.18-0.07c0.49,0.2,0.49,0.19,0.27,0.68c-0.19,0.41-0.19,0.41,0.23,0.6
			c0.66,0.31,1.31,0.61,1.97,0.91c0.13,0.06,0.18,0.11,0.1,0.25c-0.1,0.17-0.13,0.43-0.27,0.5s-0.34-0.12-0.52-0.2
			c-0.62-0.28-1.24-0.57-1.86-0.86c-0.14-0.06-0.19-0.05-0.25,0.09c-0.07,0.19-0.17,0.37-0.25,0.56
			C30.59,44.79,30.59,44.86,30.51,44.86z"/>
		<path id="Path_375" class="st5" d="M40.82,35.91c-0.04-0.05-0.09-0.1-0.13-0.15l-1.38-1.83c-0.19-0.26-0.19-0.26-0.44-0.07
			c-0.13,0.1-0.26,0.19-0.39,0.3c-0.08,0.07-0.13,0.06-0.2-0.02c-0.35-0.4-0.35-0.4,0.07-0.71c0.54-0.41,1.08-0.81,1.62-1.22
			c0.11-0.08,0.16-0.08,0.24,0.03c0.3,0.39,0.3,0.39-0.09,0.69c-0.37,0.28-0.37,0.28-0.09,0.65c0.44,0.58,0.87,1.16,1.31,1.73
			c0.09,0.12,0.1,0.18-0.04,0.26s-0.25,0.18-0.37,0.28C40.9,35.85,40.86,35.88,40.82,35.91z"/>
		<path id="Path_376" class="st5" d="M76.9,36.95c0.05-0.02,0.07,0.02,0.09,0.04c0.13,0.16,0.26,0.32,0.38,0.48
			c0.09,0.12-0.04,0.14-0.09,0.18c-0.63,0.51-1.26,1.03-1.91,1.53c-0.13,0.1-0.13,0.16-0.03,0.28c0.22,0.26,0.43,0.53,0.65,0.8
			c0.08,0.09,0.08,0.14-0.02,0.23c-0.39,0.32-0.39,0.33-0.71-0.07s-0.63-0.79-0.95-1.18c-0.06-0.07-0.11-0.12,0-0.21
			c0.84-0.67,1.68-1.34,2.52-2.02C76.85,36.98,76.88,36.96,76.9,36.95z"/>
		<path id="Path_377" class="st5" d="M28.12,54.22c-0.15,0-0.19-0.05-0.18-0.19c0.01-0.62,0.01-0.61,0.61-0.58
			c0.92,0.05,1.84,0.08,2.76,0.12c0.16,0.01,0.23,0.04,0.19,0.21c-0.01,0.07-0.02,0.15-0.01,0.22c-0.02,0.37-0.01,0.37-0.38,0.35
			c-0.46-0.02-0.93-0.04-1.39-0.06L28.12,54.22z"/>
		<path id="Path_378" class="st5" d="M35.02,42.35c-0.13,0.21-0.24,0.41-0.37,0.61c-0.04,0.06-0.09,0-0.12-0.03
			c-0.92-0.55-1.85-1.09-2.77-1.64c-0.09-0.05-0.12-0.1-0.05-0.19c0-0.01,0.01-0.01,0.01-0.02c0.3-0.55,0.3-0.55,0.83-0.23
			c0.77,0.46,1.54,0.91,2.31,1.37C34.91,42.25,34.99,42.28,35.02,42.35z"/>
		<path id="Path_379" class="st5" d="M33.5,64.74c0,0.07-0.06,0.08-0.11,0.1c-0.98,0.42-1.96,0.83-2.94,1.25
			c-0.1,0.04-0.15,0.03-0.2-0.08c-0.28-0.58-0.28-0.58,0.29-0.82c0.83-0.35,1.66-0.7,2.49-1.06c0.15-0.07,0.21-0.04,0.26,0.11
			C33.35,64.41,33.43,64.57,33.5,64.74z"/>
		<path id="Path_380" class="st5" d="M39.06,72.53c-0.05,0.06-0.08,0.09-0.11,0.13c-0.74,0.76-1.48,1.51-2.22,2.28
			c-0.09,0.1-0.15,0.09-0.23,0c-0.14-0.15-0.38-0.28-0.39-0.44c-0.01-0.13,0.23-0.29,0.37-0.43c0.63-0.64,1.26-1.28,1.88-1.93
			c0.11-0.12,0.18-0.12,0.28,0c0.1,0.11,0.2,0.21,0.31,0.31C38.99,72.48,39.02,72.5,39.06,72.53z"/>
		<path id="Path_381" class="st5" d="M39.8,76.26c-0.28,0.01-0.51-0.21-0.52-0.48c0-0.01,0-0.01,0-0.02
			c-0.01-0.28,0.22-0.52,0.5-0.53c0,0,0,0,0,0c0.28,0,0.51,0.22,0.53,0.51C40.31,76.02,40.08,76.25,39.8,76.26z"/>
		<path id="Path_382" class="st5" d="M71.79,76.26c-0.28,0-0.5-0.22-0.51-0.49c0-0.01,0-0.01,0-0.02c0-0.28,0.24-0.51,0.52-0.51
			s0.51,0.24,0.51,0.52C72.31,76.03,72.08,76.26,71.79,76.26C71.8,76.26,71.79,76.26,71.79,76.26z"/>
		<path id="Path_383" class="st6" d="M64.32,76.87c0.17-0.01,0.34,0.05,0.48,0.15c0.04,0.03,0.09,0.06,0.06,0.11
			s-0.08,0.04-0.13,0.03c-0.33-0.05-0.53,0.03-0.62,0.27c-0.1,0.26,0.02,0.54,0.26,0.67c0.05,0.04,0.2,0.03,0.13,0.15
			s-0.16,0.02-0.23-0.01c-0.19-0.08-0.35-0.22-0.47-0.38c-0.17-0.18-0.21-0.44-0.1-0.66C63.83,76.97,64.07,76.84,64.32,76.87z"/>
		<path id="Path_384" class="st6" d="M51.71,78.72c-0.03-0.3,0.18-0.57,0.48-0.6c0,0,0,0,0,0c0.34-0.02,0.66,0.17,0.8,0.48
			c0.01,0.04,0.03,0.08-0.01,0.11c-0.05,0.05-0.09,0-0.12-0.03c-0.1-0.13-0.27-0.2-0.43-0.17c-0.27,0.04-0.46,0.29-0.43,0.56
			c0.01,0.05,0.02,0.11,0.05,0.16c0.02,0.06,0.05,0.12,0.09,0.17c0.04,0.06,0.05,0.1-0.02,0.14s-0.09-0.01-0.12-0.05
			C51.82,79.28,51.71,79.01,51.71,78.72z"/>
		<path id="Path_385" class="st7" d="M62.09,82.12c0.07-0.03,0.04-0.1,0.06-0.15c0.05,0.04,0.06,0.11,0.03,0.17
			C62.15,82.18,62.11,82.14,62.09,82.12z"/>
		<path id="Path_386" class="st8" d="M78.31,54.89c0.02,3.17-0.63,6.31-1.93,9.21c-0.84,1.93-1.97,3.73-3.35,5.32
			c-3.22,3.78-7.6,6.39-12.45,7.43c-6.48,1.4-13.25-0.12-18.51-4.15c-2.69-2.05-4.87-4.68-6.4-7.7c-1.2-2.3-1.96-4.81-2.24-7.38
			c-0.53-4.19,0.18-8.45,2.04-12.25c1.44-3.02,3.55-5.67,6.17-7.76c1.85-1.49,3.93-2.67,6.15-3.51c4.01-1.5,8.36-1.84,12.55-0.99
			c4.77,0.97,9.1,3.47,12.34,7.11c2.76,3.06,4.6,6.84,5.3,10.91C78.21,52.36,78.32,53.62,78.31,54.89z"/>
		<path id="Path_387" class="st9" d="M60.48,80.89c0,0.08,0,0.17,0,0.25C60.42,81.06,60.42,80.96,60.48,80.89z"/>
		<path id="Path_388" class="st5" d="M60.48,80.89c0,0.08,0,0.17,0,0.25C60.3,81.06,60.33,80.97,60.48,80.89z"/>
		<path id="Path_389" class="st10" d="M55.95,68.91c-2.66,0.03-5.3-0.44-7.78-1.38c-2.38-0.89-4.53-2.32-6.26-4.18
			c-1.19-1.28-2.06-2.82-2.57-4.49c-0.12-0.34-0.02-0.73,0.26-0.97c0.28-0.28,0.61-0.49,0.97-0.64c1.17-0.49,2.38-0.85,3.62-1.07
			c2.08-0.42,4.19-0.7,6.32-0.83c0.2-0.01,0.2-0.08,0.14-0.24c-0.47-1.12-0.78-2.3-0.92-3.51c-0.19-1.88,0-3.78,0.56-5.58
			c0.53-1.72,1.32-3.36,2.33-4.85c0.52-0.78,1.01-1.58,1.51-2.37c0.7-1.09,1.17-2.31,1.37-3.59c0.02-0.16,0.08-0.22,0.25-0.21
			c0.37,0.01,0.38,0,0.44,0.38c0.27,1.38,0.8,2.69,1.58,3.87c0.61,0.99,1.26,1.96,1.88,2.95c0.26,0.41,0.46,0.86,0.7,1.29
			c0.77,1.43,1.28,2.98,1.51,4.58c0.4,2.34,0.13,4.74-0.78,6.93c-0.13,0.32-0.13,0.32,0.23,0.35c2.64,0.17,5.27,0.58,7.83,1.23
			c0.78,0.19,1.54,0.48,2.25,0.85c0.42,0.18,0.76,0.53,0.92,0.97c0.03,0.11,0.03,0.22-0.01,0.32c-0.6,2.14-1.8,4.07-3.45,5.55
			c-0.62,0.59-1.3,1.12-2.02,1.58c-2.15,1.36-4.54,2.28-7.04,2.72c-0.42,0.07-0.85,0.14-1.28,0.2
			C57.65,68.86,56.8,68.92,55.95,68.91z"/>
		<path id="Path_390" class="st5" d="M43.79,68.94c0.8,0.14,1.6,0.28,2.41,0.42c1.71,0.3,3.41,0.6,5.12,0.91
			c0.1,0.02,0.21,0.04,0.35,0.07l-0.87,1.03l8.11,0.7l-0.78,0.66l7.68,0.34v0.05l-10.26,1.01l1.31-1.17l-8.41-0.85l1.38-1.03
			l-6.04-2.08c-0.01-0.01-0.02-0.02-0.01-0.03S43.79,68.94,43.79,68.94z"/>
		<path id="Path_391" class="st11" d="M43.79,68.94v0.05l-0.22-0.06C43.64,68.88,43.73,68.89,43.79,68.94z"/>
		<path id="Path_392" class="st0" d="M40.3,59.65c1.02,0.35,2.07,0.62,3.13,0.8c0.88,0.17,1.76,0.29,2.65,0.38
			c1.1,0.14,2.2,0.2,3.31,0.19c1.46-0.05,2.92-0.26,4.34-0.6c0.66-0.15,1.31-0.34,1.94-0.57c0.11-0.05,0.24-0.05,0.35,0
			c1.27,0.46,2.59,0.78,3.93,0.96c0.61,0.09,1.23,0.13,1.84,0.18c0.71,0.05,1.43,0.04,2.14-0.02c0.87-0.07,1.75-0.17,2.62-0.27
			c1.23-0.15,2.44-0.39,3.64-0.7c0.38-0.1,0.74-0.23,1.14-0.36c-0.13,0.38-0.29,0.75-0.49,1.1c-0.97,1.77-2.36,3.28-4.06,4.39
			c-2.02,1.36-4.29,2.3-6.68,2.75c-1.08,0.21-2.17,0.34-3.26,0.4c-1.26,0.06-2.52,0.01-3.77-0.15c-1.81-0.22-3.58-0.69-5.27-1.4
			c-1.49-0.61-2.87-1.45-4.1-2.49c-0.67-0.59-1.3-1.24-1.87-1.92c-0.64-0.78-1.17-1.65-1.54-2.59C40.29,59.72,40.29,59.7,40.3,59.65
			z"/>
		<path id="Path_393" class="st5" d="M58.44,50.64c0.28-0.63,0.39-1.32,0.32-2.01c-0.05-0.55-0.17-1.1-0.25-1.64
			c-0.11-0.8-0.15-1.61-0.12-2.42c0-0.08,0.02-0.16,0.05-0.24c0.08-0.14,0.03-0.31-0.1-0.39c-0.12-0.09-0.3-0.08-0.4,0.04
			c-0.15,0.12-0.29,0.26-0.46,0.41l-0.55-1.19l-0.7,0.96c-0.15-0.13-0.16-0.37-0.4-0.39s-0.31,0.17-0.42,0.35l-0.66-0.91
			c-0.18,0.42-0.39,0.82-0.63,1.21c-0.16-0.14-0.31-0.28-0.46-0.41c-0.1-0.13-0.28-0.16-0.42-0.07c-0.15,0.1-0.15,0.24-0.1,0.41
			c0.06,0.44,0.07,0.88,0.03,1.31c-0.01,0.75-0.1,1.5-0.26,2.23c-0.21,0.91-0.14,1.87,0.21,2.73c-0.39,0-0.77,0.07-1.13,0.21
			c-0.16,0.06-0.29,0.15-0.27,0.35c0.02,0.18,0.14,0.25,0.31,0.28c0.22,0.04,0.31,0.22,0.42,0.38c0.06,0.08-0.01,0.11-0.07,0.15
			c-0.16,0.1-0.32,0.19-0.47,0.3c-0.22,0.16-0.23,0.42-0.01,0.54c0.25,0.15,0.49,0.32,0.71,0.51c0.42,0.36,0.96,0.56,1.52,0.56
			c0.08,0,0.16-0.03,0.19,0.1c0.13,0.5,0.42,0.94,0.83,1.26c0.1,0.08,0.16,0.21,0.15,0.33c-0.01,1.17-0.01,2.33,0,3.5
			c0,0.16-0.03,0.25-0.2,0.29c-0.26,0.06-0.51,0.16-0.77,0.23c-0.1,0.03-0.21,0.06-0.3-0.07c-1.15-1.46-2.11-3.06-2.86-4.77
			c-1.23-3.04-1.24-6.43-0.03-9.47c0.51-1.37,1.18-2.67,2-3.87c0.3-0.45,0.58-0.92,0.9-1.37c0.77-1.08,1.37-2.27,1.78-3.53
			c0.07,0.2,0.12,0.35,0.18,0.5c0.44,1.14,1.01,2.23,1.69,3.24c0.82,1.18,1.56,2.42,2.22,3.71c0.67,1.36,1.13,2.82,1.36,4.32
			c0.34,2.17,0.06,4.39-0.79,6.42c-0.76,1.71-1.74,3.31-2.9,4.78c-0.05,0.1-0.17,0.14-0.26,0.09c-0.25-0.09-0.51-0.16-0.76-0.24
			c-0.1-0.02-0.16-0.11-0.15-0.21c0-1.2,0-2.4,0-3.6c0-0.11,0.05-0.2,0.14-0.27c0.42-0.33,0.72-0.79,0.87-1.3
			c0.02-0.1,0.08-0.1,0.16-0.1c0.5-0.03,0.98-0.21,1.36-0.53c0.23-0.2,0.48-0.39,0.75-0.54c0.14-0.07,0.2-0.24,0.13-0.38
			c-0.02-0.05-0.06-0.08-0.1-0.11c-0.17-0.14-0.36-0.26-0.55-0.37c-0.09-0.06-0.12-0.1-0.05-0.18c0.12-0.15,0.22-0.32,0.45-0.34
			c0.15-0.01,0.26-0.13,0.26-0.28c0.01-0.14-0.08-0.28-0.22-0.32C59.24,50.7,58.84,50.63,58.44,50.64z"/>
		<path id="Path_394" class="st5" d="M58.15,59.83c0.52-0.71,1.03-1.4,1.48-2.14c0.21-0.35,0.42-0.7,0.61-1.05
			c0.15-0.21,0.28-0.43,0.39-0.65c0.04-0.12,0.15-0.07,0.23-0.07c0.94,0.06,1.89,0.15,2.82,0.26c1.79,0.2,3.56,0.52,5.3,0.97
			c0.66,0.17,1.29,0.4,1.9,0.69c0.18,0.09,0.36,0.2,0.52,0.32c0.38,0.27,0.36,0.46-0.03,0.71c-0.18,0.12-0.38,0.21-0.59,0.28
			c-1,0.32-2.03,0.57-3.07,0.74c-1.39,0.24-2.79,0.39-4.19,0.47c-0.98,0.05-1.97,0.02-2.95-0.11c-0.73-0.09-1.46-0.21-2.18-0.36
			C58.32,59.88,58.24,59.85,58.15,59.83z"/>
		<path id="Path_395" class="st5" d="M48.69,60.4c-1.18-0.04-2.36-0.14-3.53-0.31c-1.33-0.17-2.65-0.44-3.95-0.79
			c-0.37-0.09-0.72-0.24-1.05-0.45c-0.33-0.22-0.34-0.41-0.03-0.64c0.49-0.35,1.04-0.61,1.62-0.78c1.53-0.47,3.08-0.81,4.66-1.04
			c1.44-0.22,2.89-0.36,4.35-0.47c0.11-0.01,0.21-0.02,0.28,0.12c0.65,1.27,1.41,2.47,2.28,3.6c0.11,0.15,0.13,0.2-0.09,0.25
			C51.74,60.23,50.22,60.4,48.69,60.4z"/>
		<path id="Path_396" class="st12" d="M55.8,44.7c0.66,1.14,1.13,2.38,1.38,3.67c0.15,0.75,0.11,1.52-0.13,2.24
			c-0.16,0.45-0.43,0.86-0.79,1.19c-0.29,0.18-0.66,0.18-0.95,0c-0.54-0.5-0.88-1.19-0.95-1.92c-0.09-1.44,0.23-2.88,0.91-4.16
			C55.41,45.37,55.59,45.03,55.8,44.7z"/>
		<path id="Path_397" class="st12" d="M55.87,52.6c0.58,0.03,1.03,0.53,0.99,1.12c-0.01,0.16-0.05,0.31-0.13,0.45
			c-0.22,0.34-0.48,0.63-0.79,0.89c-0.08,0.08-0.13,0.02-0.19-0.03c-0.25-0.21-0.47-0.45-0.67-0.71c-0.36-0.51-0.24-1.21,0.27-1.57
			c0.02-0.01,0.04-0.03,0.06-0.04C55.56,52.63,55.71,52.59,55.87,52.6z"/>
		<path id="Path_398" class="st12" d="M57.8,44.95c-0.01,1.29,0.11,2.57,0.35,3.84c0.07,0.63-0.08,1.26-0.42,1.79
			c0.04-0.21,0.08-0.41,0.11-0.62c0.1-1.21-0.09-2.44-0.56-3.56c-0.03-0.08-0.06-0.15-0.09-0.23c-0.2-0.51-0.2-0.51,0.21-0.87
			C57.5,45.19,57.62,45.1,57.8,44.95z"/>
		<path id="Path_399" class="st12" d="M53.73,50.49c-0.21-0.4-0.33-0.83-0.34-1.28c0-0.56,0.06-1.11,0.19-1.65
			c0.14-0.79,0.21-1.58,0.2-2.38c0-0.06,0-0.11,0.01-0.2c0.26,0.21,0.49,0.41,0.73,0.59c0.11,0.08,0.06,0.16,0.03,0.26
			c-0.31,0.64-0.54,1.3-0.71,1.99c-0.2,0.83-0.22,1.7-0.06,2.54C53.79,50.4,53.77,50.46,53.73,50.49z"/>
		<path id="Path_400" class="st12" d="M52.6,52.57c0.6-0.37,1.32-0.46,1.99-0.24c0.14,0.04,0.17,0.09,0.06,0.21
			c-0.16,0.17-0.26,0.38-0.31,0.6c-0.03,0.17-0.14,0.2-0.28,0.19c-0.41-0.03-0.8-0.19-1.11-0.46L52.6,52.57z"/>
		<path id="Path_401" class="st12" d="M56.92,52.37c0.64-0.25,1.36-0.2,1.96,0.15c0.07,0.03,0.08,0.07,0.01,0.13
			c-0.35,0.36-0.8,0.6-1.29,0.68c-0.1,0.01-0.17-0.01-0.2-0.12C57.32,52.88,57.15,52.6,56.92,52.37z"/>
		<path id="Path_402" class="st13" d="M52.82,51.29c0.34-0.15,0.74-0.02,0.92,0.31c-0.11,0.01-0.21,0.01-0.31,0.03
			C53.01,51.69,53.01,51.69,52.82,51.29z"/>
		<path id="Path_403" class="st13" d="M57.8,51.57c0.23-0.38,0.58-0.32,0.92-0.31C58.53,51.72,58.51,51.73,57.8,51.57z"/>
		<path id="Path_404" class="st14" d="M56.81,44.41c0.05,0.2,0.28,0.34,0.05,0.52c-0.05,0.04-0.1,0.17-0.19,0.08
			c-0.07-0.07-0.16-0.18-0.08-0.3C56.65,44.63,56.71,44.55,56.81,44.41z"/>
		<path id="Path_405" class="st14" d="M55.05,44.74c-0.04,0.1-0.07,0.23-0.17,0.29c-0.05,0.03-0.1-0.06-0.15-0.1
			c-0.12-0.08-0.04-0.17,0-0.25s0.04-0.22,0.14-0.19C54.98,44.52,55.03,44.63,55.05,44.74z"/>
	</g>
	<g class="st15">
		<path class="st16" d="M66.55,19.52V17.8h5.89v1.72l-1.52,0.29v10.21l1.52,0.29v1.71h-5.89v-1.71l1.52-0.29V19.81L66.55,19.52z"/>
		<path class="st16" d="M73.52,19.52V17.8h5.89v1.72l-1.52,0.29v10.21l1.52,0.29v1.71h-5.89v-1.71l1.52-0.29V19.81L73.52,19.52z"/>
		<path class="st16" d="M93.01,17.8v3.79h-2.19L90.7,20h-2.62v10.02l1.52,0.29v1.71h-5.9v-1.71l1.52-0.29V20h-2.61l-0.12,1.59h-2.18
			V17.8H93.01z"/>
		<path class="st16" d="M112.56,21.5l-0.06-0.01l-3.81,10.53h-1.91l-3.79-10.49l-0.06,0.01l0.27,6.24v2.24l1.52,0.29v1.71h-5.89
			v-1.71l1.51-0.29V19.81l-1.51-0.29V17.8h1.51h3.72l3.62,10.48h0.06l3.65-10.48h5.25v1.72l-1.52,0.29v10.21l1.52,0.29v1.71h-5.89
			v-1.71l1.51-0.29v-2.24L112.56,21.5z"/>
		<path class="st16" d="M124.47,32.02c-0.08-0.18-0.15-0.36-0.21-0.54s-0.1-0.37-0.14-0.56c-0.34,0.39-0.75,0.71-1.24,0.95
			c-0.49,0.24-1.04,0.36-1.67,0.36c-1.04,0-1.86-0.28-2.47-0.84c-0.61-0.56-0.91-1.33-0.91-2.3c0-0.99,0.4-1.75,1.19-2.29
			c0.79-0.54,1.96-0.81,3.5-0.81h1.46v-1.04c0-0.51-0.15-0.9-0.44-1.18s-0.73-0.42-1.3-0.42c-0.33,0-0.62,0.04-0.87,0.11
			s-0.46,0.16-0.62,0.27l-0.19,1.13h-2.15l0.01-2.34c0.52-0.35,1.12-0.65,1.79-0.89s1.41-0.36,2.2-0.36c1.31,0,2.37,0.32,3.19,0.96
			c0.82,0.64,1.23,1.55,1.23,2.74v4.37c0,0.16,0,0.32,0,0.46c0,0.14,0.01,0.28,0.03,0.41l0.87,0.12v1.71H124.47z M122,30.11
			c0.43,0,0.82-0.09,1.17-0.28s0.62-0.42,0.82-0.7v-1.61h-1.46c-0.61,0-1.06,0.14-1.38,0.42s-0.47,0.62-0.47,1.02
			c0,0.36,0.12,0.64,0.35,0.84C121.27,30.01,121.59,30.11,122,30.11z"/>
		<path class="st16" d="M135.61,30.73c-0.33,0.49-0.72,0.86-1.18,1.11c-0.45,0.25-0.97,0.38-1.55,0.38c-1.3,0-2.31-0.48-3.03-1.43
			c-0.72-0.95-1.08-2.21-1.08-3.77v-0.21c0-1.67,0.36-3.01,1.08-4.03s1.74-1.53,3.05-1.53c0.53,0,1,0.12,1.43,0.35
			c0.42,0.23,0.79,0.56,1.11,0.98V18.8l-1.52-0.29v-1.72h1.52h2.85v13.23l1.37,0.29v1.71h-3.84L135.61,30.73z M131.62,27.03
			c0,0.92,0.15,1.65,0.46,2.18c0.31,0.53,0.82,0.8,1.52,0.8c0.42,0,0.78-0.08,1.08-0.25c0.31-0.17,0.56-0.41,0.75-0.73v-4.48
			c-0.2-0.34-0.44-0.6-0.75-0.79s-0.66-0.28-1.07-0.28c-0.7,0-1.21,0.31-1.52,0.93c-0.32,0.62-0.48,1.43-0.48,2.42V27.03z"/>
		<path class="st16" d="M140.78,30.31l1.37-0.29v-6.55l-1.51-0.29v-1.72h4.17l0.13,1.54c0.25-0.55,0.57-0.97,0.96-1.28
			s0.84-0.46,1.36-0.46c0.15,0,0.31,0.01,0.47,0.03s0.3,0.05,0.42,0.08l-0.3,2.6l-1.17-0.03c-0.42,0-0.76,0.08-1.04,0.24
			s-0.48,0.39-0.62,0.69v5.14l1.37,0.29v1.71h-5.59V30.31z"/>
		<path class="st16" d="M155.52,32.02c-0.08-0.18-0.15-0.36-0.21-0.54s-0.1-0.37-0.14-0.56c-0.34,0.39-0.75,0.71-1.24,0.95
			c-0.49,0.24-1.04,0.36-1.67,0.36c-1.04,0-1.86-0.28-2.47-0.84c-0.61-0.56-0.91-1.33-0.91-2.3c0-0.99,0.4-1.75,1.19-2.29
			c0.79-0.54,1.96-0.81,3.5-0.81h1.46v-1.04c0-0.51-0.15-0.9-0.44-1.18s-0.73-0.42-1.3-0.42c-0.33,0-0.62,0.04-0.87,0.11
			s-0.46,0.16-0.62,0.27l-0.19,1.13h-2.15l0.01-2.34c0.52-0.35,1.12-0.65,1.79-0.89s1.41-0.36,2.2-0.36c1.31,0,2.37,0.32,3.19,0.96
			c0.82,0.64,1.23,1.55,1.23,2.74v4.37c0,0.16,0,0.32,0,0.46c0,0.14,0.01,0.28,0.03,0.41l0.87,0.12v1.71H155.52z M153.05,30.11
			c0.43,0,0.82-0.09,1.17-0.28s0.62-0.42,0.82-0.7v-1.61h-1.46c-0.61,0-1.06,0.14-1.38,0.42s-0.47,0.62-0.47,1.02
			c0,0.36,0.12,0.64,0.35,0.84C152.32,30.01,152.64,30.11,153.05,30.11z"/>
		<path class="st16" d="M168.4,25.08h-1.91l-0.3-1.32c-0.2-0.16-0.44-0.29-0.74-0.39c-0.3-0.1-0.62-0.16-0.98-0.16
			c-0.5,0-0.9,0.11-1.19,0.34s-0.44,0.51-0.44,0.84c0,0.32,0.14,0.58,0.42,0.8c0.28,0.21,0.84,0.4,1.68,0.56
			c1.31,0.26,2.28,0.64,2.91,1.15c0.63,0.5,0.95,1.2,0.95,2.08c0,0.95-0.41,1.73-1.23,2.33c-0.82,0.6-1.89,0.9-3.23,0.9
			c-0.81,0-1.56-0.12-2.24-0.36c-0.68-0.24-1.28-0.58-1.81-1.02l-0.03-2.37h1.99l0.39,1.38c0.17,0.14,0.4,0.25,0.69,0.32
			s0.6,0.1,0.92,0.1c0.58,0,1.02-0.1,1.32-0.31s0.45-0.49,0.45-0.85c0-0.31-0.15-0.58-0.46-0.81c-0.31-0.23-0.87-0.43-1.69-0.61
			c-1.24-0.25-2.18-0.63-2.82-1.13s-0.95-1.18-0.95-2.04c0-0.89,0.36-1.65,1.09-2.29c0.73-0.64,1.77-0.96,3.12-0.96
			c0.82,0,1.6,0.11,2.33,0.33s1.31,0.5,1.72,0.85L168.4,25.08z"/>
	</g>
	<g class="st15">
		<path class="st16" d="M71.95,38.41c0.57,0.31,1.01,0.74,1.34,1.29c0.33,0.55,0.49,1.15,0.49,1.81c0,0.67-0.16,1.27-0.49,1.82
			c-0.33,0.55-0.77,0.98-1.34,1.3c-0.57,0.32-1.19,0.48-1.88,0.48s-1.31-0.16-1.88-0.48c-0.57-0.32-1.01-0.75-1.34-1.3
			c-0.33-0.55-0.49-1.15-0.49-1.82c0-0.66,0.16-1.26,0.49-1.81c0.33-0.55,0.77-0.98,1.34-1.29c0.57-0.31,1.19-0.47,1.88-0.47
			S71.38,38.1,71.95,38.41z M68.82,39.34c-0.39,0.22-0.69,0.52-0.92,0.91c-0.23,0.38-0.34,0.8-0.34,1.26s0.11,0.88,0.34,1.27
			s0.54,0.69,0.92,0.92s0.8,0.34,1.25,0.34s0.87-0.11,1.25-0.34s0.68-0.53,0.91-0.92s0.33-0.81,0.33-1.27s-0.11-0.88-0.33-1.26
			c-0.22-0.38-0.53-0.68-0.91-0.91s-0.8-0.33-1.25-0.33S69.2,39.12,68.82,39.34z"/>
		<path class="st16" d="M80.14,38.02h1.16v7h-1.16l-3.73-5.04v5.04h-1.18v-7h1.16l3.75,5.06V38.02z"/>
		<path class="st16" d="M83.34,38.02h1.18v5.93h3.03v1.07h-4.21V38.02z"/>
		<path class="st16" d="M88.87,38.02h1.18v7h-1.18V38.02z"/>
		<path class="st16" d="M96.99,38.02h1.16v7h-1.16l-3.73-5.04v5.04h-1.18v-7h1.16l3.75,5.06V38.02z"/>
		<path class="st16" d="M100.18,38.02h5v1.06h-3.82v1.9h3.42v1.05h-3.42v1.93h3.94v1.06h-5.12V38.02z"/>
		<path class="st16" d="M114.86,38.47c0.55,0.3,0.98,0.72,1.29,1.25c0.31,0.53,0.47,1.13,0.47,1.8s-0.16,1.26-0.47,1.79
			s-0.75,0.95-1.3,1.25c-0.55,0.3-1.18,0.46-1.88,0.46h-2.84v-7H113C113.69,38.02,114.31,38.17,114.86,38.47z M114.25,43.65
			c0.37-0.21,0.65-0.5,0.86-0.87c0.21-0.37,0.32-0.79,0.32-1.25s-0.11-0.89-0.33-1.26s-0.51-0.67-0.88-0.88s-0.79-0.32-1.24-0.32
			h-1.67v4.88h1.72C113.47,43.96,113.88,43.86,114.25,43.65z"/>
		<path class="st16" d="M118.06,38.02h5v1.06h-3.82v1.9h3.42v1.05h-3.42v1.93h3.94v1.06h-5.12V38.02z"/>
		<path class="st16" d="M129.6,41.58h1.03v2.61c-0.36,0.27-0.79,0.5-1.28,0.67c-0.49,0.17-0.97,0.25-1.44,0.25
			c-0.68,0-1.3-0.16-1.87-0.48c-0.56-0.32-1.01-0.75-1.33-1.3c-0.32-0.55-0.49-1.15-0.49-1.82c0-0.66,0.17-1.26,0.5-1.81
			c0.33-0.55,0.78-0.98,1.36-1.29c0.57-0.31,1.21-0.47,1.9-0.47c0.49,0,0.98,0.09,1.46,0.27c0.48,0.18,0.89,0.42,1.24,0.73L130,39.8
			c-0.27-0.25-0.59-0.45-0.94-0.59c-0.35-0.14-0.71-0.21-1.08-0.21c-0.47,0-0.89,0.11-1.28,0.33c-0.39,0.22-0.7,0.53-0.93,0.91
			c-0.23,0.38-0.34,0.81-0.34,1.27c0,0.47,0.11,0.89,0.34,1.28c0.23,0.39,0.54,0.69,0.93,0.92c0.39,0.22,0.82,0.33,1.29,0.33
			c0.26,0,0.53-0.04,0.81-0.13c0.28-0.09,0.55-0.21,0.8-0.36V41.58z"/>
		<path class="st16" d="M136.93,45.02l-1.28-2.12c-0.07,0.01-0.17,0.01-0.32,0.01h-1.66v2.11h-1.18v-7h2.84
			c0.89,0,1.59,0.21,2.08,0.62c0.49,0.42,0.74,1,0.74,1.76c0,0.56-0.12,1.03-0.38,1.42c-0.25,0.39-0.61,0.67-1.08,0.85l1.57,2.34
			H136.93z M135.33,41.85c0.55,0,0.97-0.12,1.26-0.36c0.29-0.24,0.44-0.59,0.44-1.05c0-0.45-0.15-0.79-0.44-1.02
			c-0.29-0.23-0.71-0.34-1.26-0.34h-1.66v2.77H135.33z"/>
		<path class="st16" d="M139.91,38.02h5v1.06h-3.82v1.9h3.42v1.05h-3.42v1.93h3.94v1.06h-5.12V38.02z"/>
		<path class="st16" d="M146.66,38.02h5v1.06h-3.82v1.9h3.42v1.05h-3.42v1.93h3.94v1.06h-5.12V38.02z"/>
	</g>
</g>
</svg>
